<svg id="graphic_element" data-name="graphic element" xmlns="http://www.w3.org/2000/svg" viewBox="0 0 106.91 100"><defs><style>.cls-1{fill:none;stroke-linecap:round;stroke-linejoin:round;}.cls-1,.cls-2,.cls-3{stroke:#362f21;stroke-width:4px;}.cls-2{fill:#272525;}.cls-2,.cls-3{stroke-miterlimit:10;}.cls-3{fill:#362f21;}</style></defs><path class="cls-1" d="M96.06,42.07c-1.29,11-20.79,34-46,36.56s-46-10.86-46-36.56Z"/><ellipse class="cls-2" cx="17.66" cy="51.42" rx="2.39" ry="2.42"/><path class="cls-3" d="M96.06,22.2s7.24-1.75,7.94,5.42c.75,7.59-7.94,14.67-7.94,14.67S98.17,35.66,96.06,22.2Z"/><path class="cls-1" d="M33.37,42.07a25.18,25.18,0,0,1,1,6.94,24.77,24.77,0,0,1-15,22.81"/><path class="cls-1" d="M38.89,78.79c0-.42,0-.68,0-1.1,0-13,10.21-23.52,22.81-23.52A22.63,22.63,0,0,1,80.59,64.53"/><path class="cls-1" d="M46.52,78.94A15.3,15.3,0,0,1,61.67,63.32,14.62,14.62,0,0,1,74,69.91"/><path class="cls-1" d="M54.38,42.07a23.45,23.45,0,0,1,1.22,2.46,24.06,24.06,0,0,1,1.95,10"/><path class="cls-1" d="M44.36,42.29A15.58,15.58,0,0,1,48,47.53a16,16,0,0,1,.73,10.53"/></svg>